<?xml version="1.0" encoding="UTF-8"?>
<svg width="40" height="40" viewBox="0 0 40 40" fill="none" xmlns="http://www.w3.org/2000/svg">
  <!-- Background Circle -->
  <circle cx="20" cy="20" r="20" fill="#3f51b5"/>
  
  <!-- Calendar Icon -->
  <rect x="10" y="8" width="20" height="24" rx="2" fill="white"/>
  
  <!-- Calendar Header -->
  <rect x="10" y="8" width="20" height="6" rx="2" fill="#f50057"/>
  
  <!-- Calendar Lines -->
  <rect x="13" y="18" width="4" height="2" rx="1" fill="#3f51b5"/>
  <rect x="18" y="18" width="4" height="2" rx="1" fill="#3f51b5"/>
  <rect x="23" y="18" width="4" height="2" rx="1" fill="#3f51b5"/>
  
  <rect x="13" y="22" width="4" height="2" rx="1" fill="#3f51b5"/>
  <rect x="18" y="22" width="4" height="2" rx="1" fill="#3f51b5"/>
  <rect x="23" y="22" width="4" height="2" rx="1" fill="#3f51b5"/>
  
  <!-- Leaf Symbol -->
  <path d="M20 26C22 26 24.5 24.5 25 22C25.5 19.5 23 17 20 17C17 17 14.5 19.5 15 22C15.5 24.5 18 26 20 26Z" fill="#4caf50"/>
  <path d="M20 26V29" stroke="#4caf50" stroke-width="2" stroke-linecap="round"/>
</svg> 